<mxfile host="app.diagrams.net" modified="2023-08-13T12:57:09.584Z" agent="Mozilla/5.0 (Macintosh; Intel Mac OS X 10_15_7) AppleWebKit/537.36 (KHTML, like Gecko) Chrome/114.0.0.0 Safari/537.36" etag="48jOPH8MyZBMIgCDS-Bk" version="21.6.8" type="github">
  <diagram name="第 1 页" id="1T55bjNrYoNuEcZIeqms">
    <mxGraphModel dx="985" dy="553" grid="1" gridSize="10" guides="1" tooltips="1" connect="1" arrows="1" fold="1" page="1" pageScale="1" pageWidth="827" pageHeight="1169" math="0" shadow="0">
      <root>
        <mxCell id="0" />
        <mxCell id="1" parent="0" />
        <mxCell id="ZGF0PkuD0fe6nRyt2Hup-1" value="User" style="shape=umlActor;verticalLabelPosition=bottom;verticalAlign=top;html=1;" parent="1" vertex="1">
          <mxGeometry x="114" y="320" width="30" height="60" as="geometry" />
        </mxCell>
        <mxCell id="ZGF0PkuD0fe6nRyt2Hup-2" value="" style="verticalLabelPosition=bottom;verticalAlign=top;html=1;shadow=0;dashed=0;strokeWidth=1;shape=mxgraph.android.phone2;strokeColor=#6c8ebf;fillColor=#dae8fc;" parent="1" vertex="1">
          <mxGeometry x="201" y="324" width="30" height="50" as="geometry" />
        </mxCell>
        <mxCell id="ZGF0PkuD0fe6nRyt2Hup-3" value="APP" style="text;html=1;align=center;verticalAlign=middle;resizable=0;points=[];autosize=1;strokeColor=none;fillColor=none;" parent="1" vertex="1">
          <mxGeometry x="192" y="377" width="50" height="30" as="geometry" />
        </mxCell>
        <mxCell id="ZGF0PkuD0fe6nRyt2Hup-4" value="" style="endArrow=classic;html=1;rounded=0;" parent="1" edge="1">
          <mxGeometry relative="1" as="geometry">
            <mxPoint x="141" y="349.5" as="sourcePoint" />
            <mxPoint x="201" y="349.5" as="targetPoint" />
          </mxGeometry>
        </mxCell>
        <mxCell id="ZGF0PkuD0fe6nRyt2Hup-5" value="read" style="edgeLabel;resizable=0;html=1;align=center;verticalAlign=middle;" parent="ZGF0PkuD0fe6nRyt2Hup-4" connectable="0" vertex="1">
          <mxGeometry relative="1" as="geometry" />
        </mxCell>
        <mxCell id="ZGF0PkuD0fe6nRyt2Hup-6" value="无线网关应用" style="shape=mxgraph.cisco.misc.breakout_box;sketch=0;html=1;pointerEvents=1;dashed=0;fillColor=#036897;strokeColor=#ffffff;strokeWidth=2;verticalLabelPosition=bottom;verticalAlign=top;align=center;outlineConnect=0;" parent="1" vertex="1">
          <mxGeometry x="324" y="312.5" width="43" height="75" as="geometry" />
        </mxCell>
        <mxCell id="ZGF0PkuD0fe6nRyt2Hup-7" value="" style="endArrow=classic;html=1;rounded=0;" parent="1" edge="1">
          <mxGeometry relative="1" as="geometry">
            <mxPoint x="236" y="335" as="sourcePoint" />
            <mxPoint x="316" y="335" as="targetPoint" />
          </mxGeometry>
        </mxCell>
        <mxCell id="ZGF0PkuD0fe6nRyt2Hup-8" value="MTOP请求" style="edgeLabel;resizable=0;html=1;align=center;verticalAlign=middle;" parent="ZGF0PkuD0fe6nRyt2Hup-7" connectable="0" vertex="1">
          <mxGeometry relative="1" as="geometry" />
        </mxCell>
        <mxCell id="ZGF0PkuD0fe6nRyt2Hup-9" value="" style="endArrow=classic;html=1;rounded=0;" parent="1" edge="1">
          <mxGeometry relative="1" as="geometry">
            <mxPoint x="316" y="365" as="sourcePoint" />
            <mxPoint x="236" y="365" as="targetPoint" />
          </mxGeometry>
        </mxCell>
        <mxCell id="ZGF0PkuD0fe6nRyt2Hup-10" value="response" style="edgeLabel;resizable=0;html=1;align=center;verticalAlign=middle;" parent="ZGF0PkuD0fe6nRyt2Hup-9" connectable="0" vertex="1">
          <mxGeometry relative="1" as="geometry" />
        </mxCell>
        <mxCell id="ZGF0PkuD0fe6nRyt2Hup-11" value="" style="endArrow=classic;html=1;rounded=0;" parent="1" edge="1">
          <mxGeometry width="50" height="50" relative="1" as="geometry">
            <mxPoint x="295" y="417" as="sourcePoint" />
            <mxPoint x="275" y="377" as="targetPoint" />
          </mxGeometry>
        </mxCell>
        <mxCell id="ZGF0PkuD0fe6nRyt2Hup-12" value="&lt;font style=&quot;font-size: 10px;&quot;&gt;返回的数据是list则基于oneSight协议；&lt;br&gt;单条数据则是自定义接口json格式数据&lt;br&gt;&lt;/font&gt;" style="rounded=0;whiteSpace=wrap;html=1;fillColor=#fff2cc;strokeColor=#d6b656;" parent="1" vertex="1">
          <mxGeometry x="190" y="417" width="220" height="60" as="geometry" />
        </mxCell>
        <mxCell id="ZGF0PkuD0fe6nRyt2Hup-13" value="" style="rounded=0;whiteSpace=wrap;html=1;" parent="1" vertex="1">
          <mxGeometry x="470" y="300" width="270" height="100" as="geometry" />
        </mxCell>
        <mxCell id="ZGF0PkuD0fe6nRyt2Hup-14" value="Reads" style="shape=mxgraph.cisco.servers.www_server;sketch=0;html=1;pointerEvents=1;dashed=0;fillColor=#036897;strokeColor=#ffffff;strokeWidth=2;verticalLabelPosition=bottom;verticalAlign=top;align=center;outlineConnect=0;" parent="1" vertex="1">
          <mxGeometry x="480" y="320" width="40" height="40" as="geometry" />
        </mxCell>
        <mxCell id="ZGF0PkuD0fe6nRyt2Hup-15" value="seo" style="shape=mxgraph.cisco.servers.www_server;sketch=0;html=1;pointerEvents=1;dashed=0;fillColor=#036897;strokeColor=#ffffff;strokeWidth=2;verticalLabelPosition=bottom;verticalAlign=top;align=center;outlineConnect=0;" parent="1" vertex="1">
          <mxGeometry x="540" y="320" width="40" height="40" as="geometry" />
        </mxCell>
        <mxCell id="ZGF0PkuD0fe6nRyt2Hup-16" value="arcadia" style="shape=mxgraph.cisco.servers.www_server;sketch=0;html=1;pointerEvents=1;dashed=0;fillColor=#036897;strokeColor=#ffffff;strokeWidth=2;verticalLabelPosition=bottom;verticalAlign=top;align=center;outlineConnect=0;" parent="1" vertex="1">
          <mxGeometry x="600" y="320" width="40" height="40" as="geometry" />
        </mxCell>
        <mxCell id="ZGF0PkuD0fe6nRyt2Hup-17" value="push" style="shape=mxgraph.cisco.servers.www_server;sketch=0;html=1;pointerEvents=1;dashed=0;fillColor=#036897;strokeColor=#ffffff;strokeWidth=2;verticalLabelPosition=bottom;verticalAlign=top;align=center;outlineConnect=0;" parent="1" vertex="1">
          <mxGeometry x="660" y="320" width="40" height="40" as="geometry" />
        </mxCell>
        <mxCell id="ZGF0PkuD0fe6nRyt2Hup-18" value="…" style="edgeLabel;resizable=0;html=1;align=center;verticalAlign=middle;" parent="1" connectable="0" vertex="1">
          <mxGeometry x="760" y="349" as="geometry">
            <mxPoint x="-39" y="-6" as="offset" />
          </mxGeometry>
        </mxCell>
        <mxCell id="ZGF0PkuD0fe6nRyt2Hup-19" value="" style="endArrow=classic;html=1;rounded=0;" parent="1" edge="1">
          <mxGeometry relative="1" as="geometry">
            <mxPoint x="373.5" y="334.5" as="sourcePoint" />
            <mxPoint x="453.5" y="334.5" as="targetPoint" />
          </mxGeometry>
        </mxCell>
        <mxCell id="ZGF0PkuD0fe6nRyt2Hup-20" value="HSF" style="edgeLabel;resizable=0;html=1;align=center;verticalAlign=middle;" parent="ZGF0PkuD0fe6nRyt2Hup-19" connectable="0" vertex="1">
          <mxGeometry relative="1" as="geometry" />
        </mxCell>
        <mxCell id="ZGF0PkuD0fe6nRyt2Hup-21" value="" style="endArrow=classic;html=1;rounded=0;" parent="1" edge="1">
          <mxGeometry relative="1" as="geometry">
            <mxPoint x="453.5" y="364.5" as="sourcePoint" />
            <mxPoint x="373.5" y="364.5" as="targetPoint" />
          </mxGeometry>
        </mxCell>
        <mxCell id="ZGF0PkuD0fe6nRyt2Hup-22" value="json" style="edgeLabel;resizable=0;html=1;align=center;verticalAlign=middle;" parent="ZGF0PkuD0fe6nRyt2Hup-21" connectable="0" vertex="1">
          <mxGeometry relative="1" as="geometry" />
        </mxCell>
        <mxCell id="ZGF0PkuD0fe6nRyt2Hup-23" value="Diamond" style="shape=mxgraph.cisco.storage.relational_database;sketch=0;html=1;pointerEvents=1;dashed=0;fillColor=#036897;strokeColor=#ffffff;strokeWidth=2;verticalLabelPosition=bottom;verticalAlign=top;align=center;outlineConnect=0;" parent="1" vertex="1">
          <mxGeometry x="320.5" y="214" width="50" height="40" as="geometry" />
        </mxCell>
        <mxCell id="ZGF0PkuD0fe6nRyt2Hup-24" value="" style="endArrow=classic;html=1;rounded=0;" parent="1" edge="1">
          <mxGeometry width="50" height="50" relative="1" as="geometry">
            <mxPoint x="344" y="308" as="sourcePoint" />
            <mxPoint x="344" y="278" as="targetPoint" />
          </mxGeometry>
        </mxCell>
        <mxCell id="ZGF0PkuD0fe6nRyt2Hup-25" value="" style="endArrow=classic;html=1;rounded=0;" parent="1" edge="1">
          <mxGeometry width="50" height="50" relative="1" as="geometry">
            <mxPoint x="380" y="233" as="sourcePoint" />
            <mxPoint x="450" y="233" as="targetPoint" />
          </mxGeometry>
        </mxCell>
        <mxCell id="ZGF0PkuD0fe6nRyt2Hup-26" value="都江堰" style="shape=mxgraph.cisco.servers.www_server;sketch=0;html=1;pointerEvents=1;dashed=0;fillColor=#036897;strokeColor=#ffffff;strokeWidth=2;verticalLabelPosition=bottom;verticalAlign=top;align=center;outlineConnect=0;" parent="1" vertex="1">
          <mxGeometry x="470" y="214" width="40" height="40" as="geometry" />
        </mxCell>
        <mxCell id="ZGF0PkuD0fe6nRyt2Hup-27" value="各个业务服务应用" style="edgeLabel;resizable=0;html=1;align=center;verticalAlign=middle;" parent="1" connectable="0" vertex="1">
          <mxGeometry x="620" y="417" as="geometry" />
        </mxCell>
      </root>
    </mxGraphModel>
  </diagram>
</mxfile>
